<svg width="184" height="80" viewBox="0 0 184 80" fill="none" xmlns="http://www.w3.org/2000/svg">
<mask id="mask0_1_79" style="mask-type:luminance" maskUnits="userSpaceOnUse" x="9" y="22" width="160" height="51">
<path d="M168.994 22.585H9.42433V72.94H168.994V22.585Z" fill="white"/>
</mask>
<g mask="url(#mask0_1_79)">
<path d="M12.7178 28.9888C12.7178 27.8185 12.5558 26.8946 12.2339 26.2151C11.91 25.5316 11.3728 25.0985 10.6182 24.9117V24.5938H29.367C31.6962 24.5938 33.6359 24.9415 35.1901 25.6349C36.7422 26.3244 37.9007 27.2602 38.6675 28.4404C39.4385 29.6226 39.8239 30.9657 39.8239 32.4697C39.8239 33.3718 39.6599 34.25 39.3318 35.1083C39.0079 35.9666 38.4748 36.7574 37.7325 37.4766C36.9882 38.1979 35.9795 38.8158 34.7062 39.3284C33.4308 39.843 31.8459 40.2026 29.9493 40.4092C37.5213 41.0987 41.3084 44.4545 41.3084 50.4787C41.3084 51.7562 41.0706 52.9861 40.5949 54.1663C40.1233 55.3485 39.4077 56.4055 38.4461 57.3373C37.4824 58.2712 36.2932 59.0103 34.8784 59.5547C33.4677 60.0951 31.8233 60.3653 29.9493 60.3653H10.6182V60.0554C11.3728 59.8646 11.91 59.4255 12.2339 58.7361C12.5558 58.0427 12.7178 57.1208 12.7178 55.9704V28.9888ZM23.0846 59.7375H24.4132C25.746 59.7375 26.8737 59.3302 27.7923 58.5135C28.7108 57.6989 29.408 56.5744 29.8837 55.1438C30.3593 53.7093 30.5972 52.0503 30.5972 50.1687C30.5972 48.3468 30.3757 46.7354 29.9329 45.3367C29.49 43.9339 28.7805 42.8332 27.8087 42.0385C26.8347 41.2437 25.5491 40.8464 23.9539 40.8464H23.0846V59.7375ZM24.4706 25.2217H23.0846V40.2185H23.9539C25.2498 40.2185 26.275 39.8648 27.0295 39.1535C27.7882 38.4442 28.3295 37.5144 28.6534 36.364C28.9753 35.2156 29.1373 33.9798 29.1373 32.6605C29.1373 31.4048 28.9774 30.2127 28.6616 29.0841C28.35 27.9556 27.8538 27.0317 27.1771 26.3105C26.4985 25.5853 25.5963 25.2217 24.4706 25.2217Z" fill="#605256"/>
<path d="M68.5783 60.3653H42.6122V60.0554C43.3667 59.8646 43.9039 59.4255 44.2279 58.7361C44.5498 58.0427 44.7118 57.1208 44.7118 55.9704V28.9888C44.7118 27.8185 44.5498 26.8946 44.2279 26.2151C43.9039 25.5316 43.3667 25.0985 42.6122 24.9117V24.5938H68.5783V35.3865H68.2584C68.2584 34.699 68.078 33.9142 67.7171 33.034C67.3604 32.1558 66.8478 31.2578 66.1752 30.3398C65.5068 29.4179 64.7195 28.5755 63.8132 27.8125C62.911 27.0496 61.8961 26.4277 60.7704 25.9449C59.6489 25.4641 58.4514 25.2217 57.1781 25.2217H55.0785V40.9417H56.3416C57.1392 40.9417 57.9532 40.7808 58.7856 40.4569C59.6161 40.1351 60.3932 39.7158 61.1149 39.2012C61.8366 38.6886 62.4394 38.1184 62.9274 37.4925C63.4134 36.8627 63.7107 36.2567 63.8214 35.6726H64.1413V46.8387H63.8214C63.7107 46.2347 63.4134 45.6268 62.9274 45.0108C62.4394 44.3909 61.8366 43.8267 61.1149 43.318C60.3932 42.8054 59.6161 42.3862 58.7856 42.0623C57.9532 41.7345 57.1392 41.5696 56.3416 41.5696H55.0785V59.7375H57.1781C58.4514 59.7375 59.6489 59.497 60.7704 59.0142C61.8961 58.5334 62.911 57.9095 63.8132 57.1466C64.7195 56.3836 65.5068 55.5452 66.1752 54.6272C66.8478 53.7053 67.3604 52.8053 67.7171 51.9251C68.078 51.0469 68.2584 50.2621 68.2584 49.5727H68.5783V60.3653Z" fill="#605256"/>
<path d="M69.8786 42.4835C69.8786 39.5966 70.3071 37.0077 71.1662 34.7189C72.0294 32.426 73.2105 30.4829 74.7093 28.8934C76.2122 27.3039 77.9346 26.0919 79.8763 25.2535C81.8221 24.417 83.8868 23.9978 86.0684 23.9978C86.9542 23.9779 87.7088 23.9938 88.3321 24.0454C88.9595 24.0991 89.5541 24.1627 90.1118 24.2362C90.6736 24.3117 91.2723 24.3792 91.908 24.4428C92.5477 24.5024 93.2981 24.5302 94.1634 24.5302C94.4853 24.5302 94.8359 24.4865 95.2132 24.3951C95.5904 24.2998 95.8652 24.1468 96.0415 23.9342H96.3614V35.3229H96.0415C95.9308 34.4705 95.7176 33.5566 95.4018 32.581C95.0902 31.6074 94.6842 30.6498 94.188 29.712C93.6959 28.7702 93.1074 27.9119 92.4246 27.137C91.746 26.3641 90.9853 25.7462 90.1446 25.2852C89.3019 24.8243 88.3854 24.5938 87.3971 24.5938C86.4006 24.5938 85.5271 24.9197 84.7726 25.5713C84.0181 26.2191 83.3701 27.1171 82.8288 28.2655C82.2875 29.4159 81.8488 30.7511 81.5166 32.2711C81.1824 33.787 80.9384 35.4182 80.7866 37.1667C80.6329 38.9112 80.557 40.6934 80.557 42.5153C80.557 44.3114 80.6329 46.0798 80.7866 47.8163C80.9384 49.5488 81.1824 51.1761 81.5166 52.696C81.8488 54.212 82.2875 55.5452 82.8288 56.6936C83.3701 57.844 84.0181 58.744 84.7726 59.3957C85.5271 60.0434 86.4006 60.3653 87.3971 60.3653V44.5817C87.3971 43.4114 87.2331 42.4875 86.905 41.808C86.581 41.1245 86.0438 40.6914 85.2893 40.5046V40.1867H99.8635V40.5046C99.1028 40.6914 98.5615 41.1245 98.2395 41.808C97.9156 42.4875 97.7557 43.4114 97.7557 44.5817V58.3864C97.7557 58.3864 97.4891 58.5195 96.9601 58.7838C96.4291 59.044 95.6602 59.3401 94.6555 59.6739C93.6549 60.0077 92.4288 60.3057 90.9812 60.564C89.5377 60.8282 87.8994 60.9614 86.0684 60.9614C83.8868 60.9614 81.8221 60.5421 79.8763 59.7057C77.9346 58.8692 76.2122 57.6552 74.7093 56.0657C73.2105 54.4762 72.0294 52.5371 71.1662 50.2482C70.3071 47.9554 69.8786 45.3665 69.8786 42.4835Z" fill="#605256"/>
<path d="M100.512 24.5938H115.078V24.9117C114.324 25.0985 113.784 25.5316 113.462 26.2151C113.139 26.8946 112.979 27.8185 112.979 28.9888V55.0326C112.979 55.4935 112.989 56.0081 113.011 56.5744C113.032 57.1367 113.112 57.685 113.249 58.2195C113.391 58.75 113.635 59.1891 113.979 59.5388C114.324 59.8845 114.82 60.0554 115.472 60.0554C116.161 60.0554 116.682 59.8944 117.038 59.5706C117.393 59.2427 117.641 58.8195 117.785 58.299C117.926 57.7744 118.002 57.2261 118.014 56.6538C118.025 56.0777 118.031 55.5372 118.031 55.0326V28.9888C118.031 27.8185 117.867 26.8946 117.539 26.2151C117.215 25.5316 116.677 25.0985 115.923 24.9117V24.5938H130.497V24.9117C129.736 25.0985 129.195 25.5316 128.873 26.2151C128.549 26.8946 128.389 27.8185 128.389 28.9888V49.0084C128.389 51.5198 127.951 53.6656 127.077 55.4458C126.202 57.2221 124.818 58.5851 122.927 59.5388C121.041 60.4865 118.566 60.9614 115.505 60.9614C112.458 60.9614 109.985 60.4865 108.082 59.5388C106.184 58.5851 104.798 57.2221 103.924 55.4458C103.049 53.6656 102.612 51.5198 102.612 49.0084V28.9888C102.612 27.8185 102.45 26.8946 102.128 26.2151C101.804 25.5316 101.267 25.0985 100.512 24.9117V24.5938Z" fill="#605256"/>
<path d="M131.146 60.0554C131.901 59.8646 132.438 59.4255 132.762 58.7361C133.084 58.0427 133.246 57.1208 133.246 55.9704V28.9888C133.246 27.8185 133.084 26.8946 132.762 26.2151C132.438 25.5316 131.901 25.0985 131.146 24.9117V24.5938H143.481L150.666 46.0281L155.849 24.5938H168.316V24.9117C167.561 25.0985 167.02 25.5316 166.692 26.2151C166.368 26.8946 166.208 27.8185 166.208 28.9888V55.9704C166.208 57.1208 166.368 58.0427 166.692 58.7361C167.02 59.4255 167.561 59.8646 168.316 60.0554V60.3653H153.741V60.0554C154.5 59.8646 155.041 59.4255 155.365 58.7361C155.687 58.0427 155.849 57.1208 155.849 55.9704V27.6695L147.951 60.3653H145.064L133.894 27.0098V33.8844C133.894 35.5812 133.994 37.3693 134.197 39.2489C134.404 41.1305 134.702 43.014 135.091 44.8996C135.479 46.7811 135.944 48.5852 136.485 50.3118C137.027 52.0344 137.619 53.598 138.265 55.0008C138.915 56.3995 139.606 57.54 140.34 58.4182C141.072 59.2984 141.837 59.8447 142.637 60.0554V60.3653H131.146V60.0554Z" fill="#605256"/>
</g>
<mask id="mask1_1_79" style="mask-type:luminance" maskUnits="userSpaceOnUse" x="43" y="42" width="86" height="7">
<path d="M43.4033 42.0145H128.818V48.7897H43.4033V42.0145Z" fill="white"/>
</mask>
<g mask="url(#mask1_1_79)">
<mask id="mask2_1_79" style="mask-type:luminance" maskUnits="userSpaceOnUse" x="43" y="41" width="87" height="9">
<path d="M129.101 41.9132H43.0179V49.0341H129.101V41.9132Z" fill="white"/>
</mask>
<g mask="url(#mask2_1_79)">
<mask id="mask3_1_79" style="mask-type:luminance" maskUnits="userSpaceOnUse" x="43" y="42" width="86" height="7">
<path d="M43.4033 42.0145H128.818V48.7897H43.4033V42.0145Z" fill="white"/>
</mask>
<g mask="url(#mask3_1_79)">
<path d="M43.4033 42.0145H128.82V48.7897H43.4033V42.0145Z" fill="white"/>
</g>
</g>
</g>
<mask id="mask4_1_79" style="mask-type:luminance" maskUnits="userSpaceOnUse" x="71" y="41" width="40" height="9">
<path d="M110.205 41.9132H71.3624V49.0341H110.205V41.9132Z" fill="white"/>
</mask>
<g mask="url(#mask4_1_79)">
<path d="M72.3466 46.3485V43.9722H72.6747L73.9623 45.8319V43.9722H74.274V46.3485H73.9377L72.6583 44.4809V46.3485H72.3466Z" fill="#231F20"/>
<path d="M77.2828 46.3485L78.226 43.9722H78.5786L79.5792 46.3485H79.2102L78.9231 45.6253H77.8979L77.6355 46.3485H77.2828ZM77.9881 45.371H78.8247L78.5704 44.7193C78.5089 44.5663 78.4495 44.4014 78.39 44.2265C78.3674 44.3497 78.3244 44.5007 78.2588 44.6795L77.9881 45.371Z" fill="#231F20"/>
<path d="M82.6294 46.3485V43.9722H82.9574V46.3485H82.6294Z" fill="#231F20"/>
<path d="M86.2506 46.3485V43.9722H86.5705V46.0703H87.7761V46.3485H86.2506Z" fill="#231F20"/>
<path d="M94.5327 46.3485L95.4759 43.9722H95.8285L96.8291 46.3485H96.4601L96.173 45.6253H95.1478L94.8854 46.3485H94.5327ZM95.238 45.371H96.0746L95.8203 44.7193C95.7588 44.5663 95.6994 44.4014 95.6399 44.2265C95.6174 44.3497 95.5743 44.5007 95.5087 44.6795L95.238 45.371Z" fill="#231F20"/>
<path d="M99.8301 46.3485V43.9722H100.913C101.218 43.9722 101.44 44.0199 101.577 44.1153C101.712 44.2106 101.782 44.3815 101.782 44.6239C101.782 44.9954 101.552 45.21 101.093 45.2676C101.257 45.3372 101.413 45.4822 101.561 45.7048L101.987 46.3485H101.577L101.257 45.8558C101.212 45.7882 101.163 45.7187 101.11 45.6491C101.06 45.5816 101.011 45.52 100.962 45.4663C100.913 45.4147 100.849 45.371 100.773 45.3392C100.701 45.3074 100.619 45.2915 100.527 45.2915H100.15V46.3485H99.8301ZM100.15 45.0213H100.847C101.251 45.0213 101.454 44.8901 101.454 44.6239C101.454 44.3656 101.278 44.2345 100.929 44.2345H100.15V45.0213Z" fill="#231F20"/>
<path d="M105.652 46.3485V44.2504H104.848V43.9722H106.792V44.2504H105.98V46.3485H105.652Z" fill="#231F20"/>
</g>
</svg>
