<svg width="406" height="132" viewBox="0 0 406 132" fill="none" xmlns="http://www.w3.org/2000/svg">
<g clip-path="url(#clip0_2_78)">
<mask id="mask0_2_78" style="mask-type:luminance" maskUnits="userSpaceOnUse" x="0" y="0" width="406" height="132">
<path d="M405.333 0H0V132H405.333V0Z" fill="white"/>
</mask>
<g mask="url(#mask0_2_78)">
<path d="M8.36599 16.7868C8.36599 13.7191 7.95453 11.2972 7.13682 9.516C6.3139 7.72433 4.94932 6.58891 3.03265 6.09933V5.266H50.6577C56.5743 5.266 61.5014 6.17746 65.4493 7.99517C69.392 9.80246 72.3347 12.2556 74.2827 15.3493C76.241 18.4483 77.2202 21.9691 77.2202 25.9118C77.2202 28.2764 76.8035 30.5785 75.9702 32.8285C75.1472 35.0785 73.7931 37.1514 71.9077 39.0368C70.017 40.9275 67.4545 42.5472 64.2202 43.891C60.9806 45.24 56.9545 46.1827 52.1368 46.7243C71.3712 48.5316 80.991 57.3285 80.991 73.1202C80.991 76.4691 80.3868 79.6931 79.1785 82.7868C77.9806 85.8858 76.1629 88.6566 73.7202 91.0993C71.2722 93.5473 68.2514 95.4848 64.6577 96.9118C61.0743 98.3285 56.8972 99.0368 52.1368 99.0368H3.03265V98.2243C4.94932 97.7243 6.3139 96.5733 7.13682 94.766C7.95453 92.9483 8.36599 90.5316 8.36599 87.516V16.7868ZM34.6993 97.391H38.0743C41.4597 97.391 44.3243 96.3233 46.6577 94.1827C48.991 92.0473 50.7618 89.0993 51.9702 85.3493C53.1785 81.5889 53.7827 77.24 53.7827 72.3077C53.7827 67.5316 53.2202 63.3077 52.0952 59.641C50.9702 55.9639 49.1681 53.0785 46.6993 50.9952C44.2254 48.9118 40.9597 47.8702 36.9077 47.8702H34.6993V97.391ZM38.2202 6.91183H34.6993V46.2243H36.9077C40.1993 46.2243 42.8035 45.2972 44.7202 43.4327C46.6472 41.5733 48.0222 39.1358 48.8452 36.1202C49.6629 33.1098 50.0743 29.8702 50.0743 26.4118C50.0743 23.1202 49.6681 19.9952 48.866 17.0368C48.0743 14.0785 46.8139 11.6566 45.0952 9.766C43.3712 7.86496 41.0795 6.91183 38.2202 6.91183Z" fill="white"/>
<path d="M150.261 99.0368H84.3028V98.2243C86.2195 97.7243 87.5841 96.5733 88.407 94.766C89.2247 92.9483 89.6362 90.5316 89.6362 87.516V16.7868C89.6362 13.7191 89.2247 11.2972 88.407 9.516C87.5841 7.72433 86.2195 6.58891 84.3028 6.09933V5.266H150.261V33.5577H149.449C149.449 31.7556 148.99 29.6983 148.074 27.391C147.167 25.0889 145.865 22.7347 144.157 20.3285C142.459 17.9118 140.459 15.7035 138.157 13.7035C135.865 11.7035 133.287 10.0733 130.428 8.80767C127.579 7.54725 124.537 6.91183 121.303 6.91183H115.969V48.1202H119.178C121.204 48.1202 123.272 47.6983 125.386 46.8493C127.496 46.0056 129.469 44.9066 131.303 43.5577C133.136 42.2139 134.667 40.7191 135.907 39.0785C137.141 37.4275 137.897 35.8389 138.178 34.3077H138.99V63.5785H138.178C137.897 61.9952 137.141 60.4014 135.907 58.7868C134.667 57.1618 133.136 55.6827 131.303 54.3493C129.469 53.0056 127.496 51.9066 125.386 51.0577C123.272 50.1983 121.204 49.766 119.178 49.766H115.969V97.391H121.303C124.537 97.391 127.579 96.7608 130.428 95.4952C133.287 94.2348 135.865 92.5993 138.157 90.5993C140.459 88.5993 142.459 86.4014 144.157 83.9952C145.865 81.5785 147.167 79.2191 148.074 76.9118C148.99 74.6098 149.449 72.5525 149.449 70.7452H150.261V99.0368Z" fill="white"/>
<path d="M153.564 52.1618C153.564 44.5941 154.653 37.8077 156.835 31.8077C159.028 25.7973 162.028 20.7035 165.835 16.5368C169.653 12.3702 174.028 9.19309 178.96 6.99517C183.903 4.80246 189.147 3.7035 194.689 3.7035C196.939 3.65142 198.856 3.69309 200.439 3.8285C202.033 3.96913 203.543 4.13579 204.96 4.3285C206.387 4.52642 207.908 4.7035 209.522 4.87017C211.147 5.02642 213.054 5.09933 215.252 5.09933C216.069 5.09933 216.96 4.98475 217.918 4.74517C218.877 4.49517 219.575 4.09413 220.022 3.53683H220.835V33.391H220.022C219.741 31.1566 219.2 28.7608 218.397 26.2035C217.606 23.6514 216.575 21.141 215.314 18.6827C214.064 16.2139 212.569 13.9639 210.835 11.9327C209.111 9.90663 207.179 8.28683 205.043 7.0785C202.903 5.87017 200.575 5.266 198.064 5.266C195.533 5.266 193.314 6.12017 191.397 7.8285C189.481 9.52642 187.835 11.8806 186.46 14.891C185.085 17.9066 183.97 21.4066 183.127 25.391C182.278 29.365 181.658 33.641 181.272 38.2243C180.882 42.7973 180.689 47.4691 180.689 52.2452C180.689 56.9535 180.882 61.5889 181.272 66.141C181.658 70.6827 182.278 74.9483 183.127 78.9327C183.97 82.9066 185.085 86.4014 186.46 89.4118C187.835 92.4275 189.481 94.7868 191.397 96.4952C193.314 98.1931 195.533 99.0368 198.064 99.0368V57.6618C198.064 54.5941 197.647 52.1723 196.814 50.391C195.991 48.5993 194.627 47.4639 192.71 46.9743V46.141H229.731V46.9743C227.798 47.4639 226.423 48.5993 225.606 50.391C224.783 52.1723 224.377 54.5941 224.377 57.6618V93.8493C224.377 93.8493 223.7 94.1983 222.356 94.891C221.007 95.5733 219.054 96.3493 216.502 97.2243C213.96 98.0993 210.845 98.8806 207.168 99.5577C203.502 100.25 199.34 100.599 194.689 100.599C189.147 100.599 183.903 99.5004 178.96 97.3077C174.028 95.115 169.653 91.9327 165.835 87.766C162.028 83.5993 159.028 78.516 156.835 72.516C154.653 66.5056 153.564 59.7191 153.564 52.1618Z" fill="white"/>
<path d="M231.379 5.266H268.379V6.09933C266.462 6.58891 265.092 7.72433 264.275 9.516C263.452 11.2972 263.045 13.7191 263.045 16.7868V85.0577C263.045 86.266 263.071 87.615 263.129 89.0993C263.181 90.5733 263.384 92.0108 263.733 93.4118C264.092 94.8025 264.712 95.9535 265.587 96.8702C266.462 97.7764 267.723 98.2243 269.379 98.2243C271.129 98.2243 272.452 97.8025 273.358 96.9535C274.259 96.0941 274.889 94.9848 275.254 93.6202C275.613 92.2452 275.806 90.8077 275.837 89.3077C275.863 87.7973 275.879 86.3806 275.879 85.0577V16.7868C275.879 13.7191 275.462 11.2972 274.629 9.516C273.806 7.72433 272.441 6.58891 270.525 6.09933V5.266H307.545V6.09933C305.613 6.58891 304.238 7.72433 303.42 9.516C302.598 11.2972 302.191 13.7191 302.191 16.7868V69.266C302.191 75.8493 301.077 81.4743 298.858 86.141C296.634 90.7973 293.118 94.3702 288.316 96.8702C283.525 99.3545 277.238 100.599 269.462 100.599C261.723 100.599 255.441 99.3545 250.608 96.8702C245.785 94.3702 242.264 90.7973 240.045 86.141C237.821 81.4743 236.712 75.8493 236.712 69.266V16.7868C236.712 13.7191 236.301 11.2972 235.483 9.516C234.66 7.72433 233.295 6.58891 231.379 6.09933V5.266Z" fill="white"/>
<path d="M309.194 98.2243C311.111 97.7243 312.475 96.5733 313.298 94.766C314.116 92.9483 314.527 90.5316 314.527 87.516V16.7868C314.527 13.7191 314.116 11.2972 313.298 9.516C312.475 7.72433 311.111 6.58891 309.194 6.09933V5.266H340.527L358.777 61.4535L371.944 5.266H403.611V6.09933C401.694 6.58891 400.319 7.72433 399.486 9.516C398.663 11.2972 398.257 13.7191 398.257 16.7868V87.516C398.257 90.5316 398.663 92.9483 399.486 94.766C400.319 96.5733 401.694 97.7243 403.611 98.2243V99.0368H366.59V98.2243C368.517 97.7243 369.892 96.5733 370.715 94.766C371.533 92.9483 371.944 90.5316 371.944 87.516V13.3285L351.882 99.0368H344.548L316.173 11.5993V29.6202C316.173 34.0681 316.429 38.7556 316.944 43.6827C317.47 48.615 318.225 53.5525 319.215 58.4952C320.199 63.4275 321.382 68.1566 322.757 72.6827C324.132 77.1983 325.637 81.2973 327.277 84.9743C328.929 88.641 330.684 91.6306 332.548 93.9327C334.408 96.24 336.35 97.6723 338.382 98.2243V99.0368H309.194V98.2243Z" fill="white"/>
</g>
<mask id="mask1_2_78" style="mask-type:luminance" maskUnits="userSpaceOnUse" x="86" y="50" width="218" height="19">
<path d="M86.3125 50.9323H303.281V68.6927H86.3125V50.9323Z" fill="white"/>
</mask>
<g mask="url(#mask1_2_78)">
<mask id="mask2_2_78" style="mask-type:luminance" maskUnits="userSpaceOnUse" x="85" y="50" width="219" height="20">
<path d="M304 50.6667H85.3333V69.3333H304V50.6667Z" fill="white"/>
</mask>
<g mask="url(#mask2_2_78)">
<mask id="mask3_2_78" style="mask-type:luminance" maskUnits="userSpaceOnUse" x="86" y="50" width="218" height="19">
<path d="M86.3125 50.9323H303.281V68.6927H86.3125V50.9323Z" fill="white"/>
</mask>
<g mask="url(#mask3_2_78)">
<path d="M86.3125 50.9323H303.286V68.6927H86.3125V50.9323Z" fill="#7B4C4C"/>
</g>
</g>
</g>
<mask id="mask4_2_78" style="mask-type:luminance" maskUnits="userSpaceOnUse" x="157" y="50" width="99" height="20">
<path d="M256 50.6667H157.333V69.3333H256V50.6667Z" fill="white"/>
</mask>
<g mask="url(#mask4_2_78)">
<path d="M159.833 62.2934V56.0642H160.667L163.938 60.9392V56.0642H164.729V62.2934H163.875L160.625 57.3975V62.2934H159.833Z" fill="white"/>
<path d="M172.372 62.2934L174.768 56.0642H175.664L178.205 62.2934H177.268L176.539 60.3975H173.935L173.268 62.2934H172.372ZM174.164 59.7309H176.289L175.643 58.0225C175.487 57.6215 175.336 57.1892 175.185 56.7309C175.127 57.0538 175.018 57.4496 174.851 57.9184L174.164 59.7309Z" fill="white"/>
<path d="M185.953 62.2934V56.0642H186.787V62.2934H185.953Z" fill="white"/>
<path d="M195.152 62.2934V56.0642H195.964V61.5642H199.027V62.2934H195.152Z" fill="white"/>
<path d="M216.19 62.2934L218.586 56.0642H219.481L222.023 62.2934H221.086L220.356 60.3975H217.752L217.086 62.2934H216.19ZM217.981 59.7309H220.106L219.461 58.0225C219.304 57.6215 219.153 57.1892 219.002 56.7309C218.945 57.0538 218.836 57.4496 218.669 57.9184L217.981 59.7309Z" fill="white"/>
<path d="M229.646 62.2934V56.0642H232.396C233.172 56.0642 233.735 56.1892 234.084 56.4392C234.427 56.6892 234.604 57.1371 234.604 57.7725C234.604 58.7465 234.021 59.309 232.854 59.46C233.271 59.6423 233.667 60.0225 234.042 60.6059L235.125 62.2934H234.084L233.271 61.0017C233.156 60.8246 233.031 60.6423 232.896 60.46C232.771 60.283 232.646 60.1215 232.521 59.9809C232.396 59.8455 232.235 59.7309 232.042 59.6475C231.86 59.5642 231.651 59.5225 231.417 59.5225H230.459V62.2934H229.646ZM230.459 58.8142H232.229C233.255 58.8142 233.771 58.4705 233.771 57.7725C233.771 57.0955 233.323 56.7517 232.438 56.7517H230.459V58.8142Z" fill="white"/>
<path d="M244.435 62.2934V56.7934H242.393V56.0642H247.331V56.7934H245.268V62.2934H244.435Z" fill="white"/>
</g>
</g>
<defs>
<clipPath id="clip0_2_78">
<rect width="405.333" height="132" fill="white"/>
</clipPath>
</defs>
</svg>
